<svg width="129" height="58" viewBox="0 0 129 58" fill="none" xmlns="http://www.w3.org/2000/svg">
<path d="M5.1571 19.2423H0V0H21.8145V5.07266H5.1571V19.2423Z" fill="white"/>
<path d="M39.7699 57.8371L30.1089 46.1954H0.32666V41.1227H32.5585L36.2717 45.6036L36.9249 40.9536L46.2249 41.1227L46.1303 46.1954L41.4116 46.1108L39.7699 57.8371Z" fill="white"/>
<path d="M11.5693 23.9938C11.5693 20.1217 14.3456 17.2726 17.5172 17.2726C19.5628 17.2726 20.9209 18.3378 21.5483 19.4284V11.9209H24.7285V30.3685H21.6515V28.3563C20.9982 29.6668 19.4597 30.6644 17.5172 30.6644C14.2424 30.6644 11.5693 27.866 11.5693 23.9938ZM21.5483 24.0192C21.5483 21.542 20.0356 20.0541 18.1962 20.0541C16.3568 20.0541 14.8441 21.542 14.8441 24.0192C14.8441 26.4964 16.3568 27.8913 18.1962 27.8913C20.0356 27.8913 21.5483 26.4541 21.5483 24.0192Z" fill="white"/>
<path d="M30.4011 24.9831C30.702 26.9191 32.017 27.8829 33.9337 27.8829C35.1199 27.8829 36.0224 27.4602 36.5037 26.6909H39.9074C39.151 29.2441 36.9077 30.656 33.9337 30.656C30.1261 30.656 27.1006 27.8576 27.1006 23.9854C27.1006 20.1133 30.0229 17.2642 33.6759 17.2642C37.7844 17.2642 40.6294 20.6121 40.1824 24.9746H30.4011V24.9831ZM30.4785 22.7511H36.8561C36.5295 20.9926 35.3434 19.9949 33.6759 19.9949C32.1631 19.9949 30.8825 21.0095 30.4785 22.7511Z" fill="white"/>
<path d="M45.6498 28.3563V30.3685H42.5728V11.9209H45.753V19.4369C46.3804 18.3463 47.747 17.281 49.7841 17.281C52.9643 17.281 55.732 20.1302 55.732 24.0023C55.732 27.8744 53.0589 30.6728 49.7841 30.6728C47.8416 30.6728 46.3031 29.6837 45.6498 28.3648V28.3563ZM52.4572 24.0192C52.4572 21.5421 50.9444 20.0541 49.1051 20.0541C47.2657 20.0541 45.753 21.5421 45.753 24.0192C45.753 26.4964 47.2657 27.8913 49.1051 27.8913C50.9444 27.8913 52.4572 26.4541 52.4572 24.0192Z" fill="white"/>
<path d="M57.3218 26.8175C57.3218 23.9684 59.9175 23.3174 62.3671 22.9708C65.066 22.5988 66.2779 22.2521 66.2779 21.1869C66.2779 20.2738 65.4442 19.8511 63.9572 19.8511C62.4703 19.8511 61.5334 20.3499 61.2326 21.4151H57.932C58.3102 19.0563 60.3731 17.2725 63.9315 17.2725C68.1431 17.2725 69.4496 19.2339 69.4496 21.7364V27.663C69.4496 28.9058 69.7246 29.8949 69.9051 30.3684H66.7765C66.6217 30.0471 66.4498 29.4722 66.3725 28.483C65.6161 29.7681 64.2065 30.6389 62.0147 30.6389C59.6425 30.6389 57.3218 29.5483 57.3218 26.8175ZM66.2693 25.4564V24.0698C65.384 24.6363 64.2237 24.8645 62.8399 25.1097C61.4561 25.3549 60.5707 25.6762 60.5707 26.6992C60.5707 27.57 61.224 28.0603 62.7625 28.0603C64.8254 28.0603 66.2693 27.0458 66.2693 25.4564Z" fill="white"/>
<path d="M73.1278 25.406V20.2234H71.4346V17.5941H73.1278V14.001H76.2994V17.5941H79.1272V20.2234H76.2994V25.4314C76.2994 27.0715 76.9785 27.8155 78.3451 27.8155C78.6459 27.8155 78.9725 27.7902 79.2734 27.7141V30.4195C78.8952 30.4956 78.4138 30.5717 77.9841 30.5717C74.8297 30.5717 73.1192 28.8385 73.1192 25.4145L73.1278 25.406Z" fill="white"/>
<path d="M81.4478 12.6646H84.7741V15.7673H81.4478V12.6646ZM81.5251 17.6019H84.7053V30.3681H81.5251V17.6019Z" fill="white"/>
<path d="M87.8691 17.5937H90.9462V19.6059C91.5479 18.0925 93.0864 17.2725 94.6765 17.2725C97.5473 17.2725 99.3179 19.3523 99.3179 22.8524V30.3684H96.1377V22.8524C96.1377 21.2883 95.4587 20.147 93.6709 20.147C91.8831 20.147 91.0494 21.2883 91.0494 22.8524V30.3684H87.8691V17.6022V17.5937Z" fill="white"/>
<path d="M101.861 31.5608H105.316C105.566 32.4316 106.554 33.1249 108.239 33.1249C110.456 33.1249 111.591 31.8144 111.591 29.4049V28.3397C110.938 29.481 109.502 30.4702 107.56 30.4702C104.285 30.4702 101.612 27.714 101.612 23.9011C101.612 20.0881 104.388 17.2812 107.56 17.2812C109.605 17.2812 110.989 18.3211 111.694 19.5893V17.6025H114.771V29.3542C114.771 33.7167 112.278 35.8726 108.239 35.8726C104.199 35.8726 102.085 33.742 101.861 31.5608ZM111.591 23.9264C111.591 21.4747 110.078 20.0543 108.239 20.0543C106.399 20.0543 104.887 21.4662 104.887 23.9264C104.887 26.3867 106.399 27.6971 108.239 27.6971C110.078 27.6971 111.591 26.336 111.591 23.9264Z" fill="white"/>
<path d="M51.3301 44.4112C51.3301 40.5222 54.1321 37.6899 57.6303 37.6899C60.8793 37.6899 63.8103 40.2178 63.6813 45.0284H53.4703C53.6937 47.8522 55.6363 49.2472 57.7077 49.2472C59.4955 49.2472 60.6816 48.4524 61.1887 47.2181H63.3805C62.7788 49.4501 60.63 51.0902 57.7077 51.0902C54.1063 51.0902 51.3301 48.3594 51.3301 44.4197V44.4112ZM61.3606 43.2699C61.0856 40.6913 59.4955 39.5246 57.6303 39.5246C55.8941 39.5246 54.0547 40.6152 53.5476 43.2699H61.3606Z" fill="white"/>
<path d="M66.054 45.848V38.0107H68.1254V45.9241C68.1254 47.8855 69.1053 49.1706 71.1252 49.1706C73.145 49.1706 74.5031 47.8855 74.5031 45.9748V38.0192H76.5659V50.7854H74.5718V48.9508C73.592 50.3627 72.3543 51.0813 70.6352 51.0813C67.816 51.0813 66.0454 49.0269 66.0454 45.848H66.054Z" fill="white"/>
<path d="M79.9854 38.0108H81.9794V40.1666C82.9851 38.3574 84.8244 37.7149 86.2684 37.8839V39.9384C83.9993 39.7439 82.0568 40.8092 82.0568 43.3878V50.777H79.9854V38.0108Z" fill="white"/>
<path d="M87.6797 44.4366C87.6797 40.5644 90.4301 37.6899 93.9026 37.6899C97.375 37.6899 100.125 40.5644 100.125 44.4366C100.125 48.3087 97.4266 51.0818 93.9026 51.0818C90.3786 51.0818 87.6797 48.258 87.6797 44.4366ZM98.0111 44.4366C98.0111 41.3084 96.0944 39.5499 93.9026 39.5499C91.7108 39.5499 89.8199 41.3084 89.8199 44.4366C89.8199 47.5647 91.7366 49.2218 93.9026 49.2218C96.0686 49.2218 98.0111 47.514 98.0111 44.4366Z" fill="white"/>
<path d="M102.652 38.0112H104.646V40.3954C105.454 38.9074 107.087 37.6899 109.133 37.6899C112.562 37.6899 115.029 40.6913 115.029 44.3605C115.029 48.0297 112.562 51.0818 109.133 51.0818C107.113 51.0818 105.505 49.9911 104.723 48.4778V55.9684H102.652V38.0197V38.0112ZM112.914 44.4366C112.914 41.3084 111.049 39.5499 108.806 39.5499C106.563 39.5499 104.723 41.3084 104.723 44.4366C104.723 47.5647 106.588 49.2218 108.806 49.2218C111.024 49.2218 112.914 47.514 112.914 44.4366Z" fill="white"/>
<path d="M116.646 44.4112C116.646 40.5222 119.448 37.6899 122.946 37.6899C126.195 37.6899 129.126 40.2178 128.997 45.0284H118.786C119.009 47.8522 120.952 49.2472 123.023 49.2472C124.811 49.2472 125.997 48.4524 126.504 47.2181H128.696C128.094 49.4501 125.945 51.0902 123.023 51.0902C119.422 51.0902 116.646 48.3594 116.646 44.4197V44.4112ZM126.676 43.2699C126.401 40.6913 124.811 39.5246 122.946 39.5246C121.21 39.5246 119.37 40.6152 118.863 43.2699H126.676Z" fill="white"/>
</svg>
